<svg width="28" height="28" viewBox="0 0 28 28" fill="none" xmlns="http://www.w3.org/2000/svg">
<path d="M23.5703 12.723H21.3555C21.2297 12.723 21.1094 12.7777 21.0246 12.8734L15.0391 19.7723V4.375C15.0391 4.25469 14.9406 4.15625 14.8203 4.15625H13.1797C13.0594 4.15625 12.961 4.25469 12.961 4.375V19.7723L6.97541 12.8734C6.89338 12.7777 6.77306 12.723 6.64455 12.723H4.42971C4.24377 12.723 4.1426 12.9445 4.26564 13.084L13.341 23.543C13.4231 23.6376 13.5245 23.7135 13.6384 23.7655C13.7524 23.8175 13.8761 23.8445 14.0014 23.8445C14.1266 23.8445 14.2504 23.8175 14.3643 23.7655C14.4783 23.7135 14.5797 23.6376 14.6617 23.543L23.7344 13.084C23.8574 12.9418 23.7563 12.723 23.5703 12.723Z" fill="black"/>
</svg>
