<svg width="46" height="46" viewBox="0 0 46 46" fill="none" xmlns="http://www.w3.org/2000/svg">
<path d="M20.125 23.8481L16.4019 20.125L14.375 22.1519L20.125 27.9019L31.625 16.4019L29.5981 14.375L20.125 23.8481Z" fill="#E52D27"/>
<path d="M23 43.125L14.122 38.3913C11.591 37.0448 9.47452 35.0345 7.99958 32.5762C6.52464 30.1179 5.74696 27.3043 5.75001 24.4375V5.75C5.75077 4.98774 6.05392 4.25691 6.59292 3.71791C7.13192 3.17891 7.86275 2.87576 8.62501 2.875H37.375C38.1373 2.87576 38.8681 3.17891 39.4071 3.71791C39.9461 4.25691 40.2492 4.98774 40.25 5.75V24.4375C40.2531 27.3043 39.4754 30.1179 38.0004 32.5762C36.5255 35.0345 34.409 37.0448 31.878 38.3913L23 43.125ZM8.62501 5.75V24.4375C8.62262 26.7832 9.25909 29.0853 10.4661 31.0966C11.6731 33.108 13.4051 34.7527 15.4761 35.8541L23 39.8662L30.5239 35.8556C32.5951 34.754 34.3273 33.1091 35.5343 31.0975C36.7413 29.0858 37.3777 26.7835 37.375 24.4375V5.75H8.62501Z" fill="#E52D27"/>
</svg>
