<svg width="21" height="21" viewBox="0 0 21 21" fill="none" xmlns="http://www.w3.org/2000/svg">
<path d="M17.0626 19.0312H16.9511C4.05577 18.2897 2.22483 7.40906 1.9689 4.08844C1.94827 3.83026 1.9788 3.57054 2.05872 3.32418C2.13864 3.07781 2.26639 2.84964 2.43465 2.65273C2.60291 2.45582 2.80836 2.29405 3.03925 2.17668C3.27013 2.05931 3.52191 1.98865 3.78015 1.96875H7.39609C7.65895 1.9685 7.91584 2.04718 8.13347 2.19461C8.3511 2.34203 8.51945 2.55141 8.61671 2.79563L9.61421 5.25C9.71025 5.48858 9.73409 5.75011 9.68275 6.00212C9.63142 6.25413 9.50718 6.4855 9.32546 6.6675L7.92765 8.07844C8.14599 9.31924 8.74021 10.463 9.62989 11.3551C10.5196 12.2471 11.6618 12.8443 12.902 13.0659L14.3261 11.655C14.5108 11.4753 14.7444 11.3539 14.9976 11.3061C15.2509 11.2583 15.5126 11.286 15.7501 11.3859L18.2242 12.3769C18.4647 12.4772 18.67 12.6469 18.8137 12.8643C18.9575 13.0816 19.0332 13.3369 19.0314 13.5975V17.0625C19.0314 17.5846 18.824 18.0854 18.4548 18.4546C18.0856 18.8238 17.5848 19.0312 17.0626 19.0312ZM3.93765 3.28125C3.7636 3.28125 3.59668 3.35039 3.47361 3.47346C3.35054 3.59653 3.2814 3.76345 3.2814 3.9375V3.99C3.58327 7.875 5.51921 17.0625 17.0233 17.7188C17.1095 17.7241 17.1959 17.7123 17.2776 17.6842C17.3592 17.656 17.4345 17.6121 17.4992 17.5547C17.5638 17.4974 17.6165 17.4279 17.6542 17.3502C17.6919 17.2725 17.7139 17.1881 17.7189 17.1019V13.5975L15.2448 12.6066L13.3614 14.4769L13.0464 14.4375C7.33702 13.7222 6.56265 8.01281 6.56265 7.95375L6.52327 7.63875L8.38702 5.75531L7.40265 3.28125H3.93765Z" fill="#EED0AC"/>
</svg>
