<svg width="43" height="43" viewBox="0 0 43 43" fill="none" xmlns="http://www.w3.org/2000/svg">
<path d="M38.8463 26.5643L33.4424 23.0285L35.5231 19.2141C36.0249 18.2617 36.2878 17.2016 36.2892 16.125V10.0782C36.2934 8.3779 35.8009 6.71343 34.8723 5.28914C33.9437 3.86486 32.6194 2.74275 31.062 2.06061C29.5046 1.37848 27.7818 1.16601 26.1053 1.44929C24.4289 1.73258 22.8716 2.49929 21.6248 3.65528L23.4512 5.62698C24.3152 4.82818 25.3934 4.29883 26.5538 4.10384C27.7142 3.90885 28.9062 4.05669 29.9838 4.52923C31.0614 5.00177 31.9777 5.77848 32.6203 6.76412C33.2629 7.74977 33.604 8.90152 33.6017 10.0782V16.125C33.6014 16.7519 33.4513 17.3696 33.1637 17.9267L29.8954 23.9188L37.3748 28.8129C37.8686 29.136 38.2737 29.5774 38.5535 30.0969C38.8332 30.6164 38.9787 31.1976 38.9767 31.7877V36.2813H32.9298V38.9688H41.6642V31.7876C41.6669 30.7511 41.4105 29.7304 40.9184 28.8182C40.4263 27.906 39.714 27.1312 38.8463 26.5643Z" fill="#E52D27"/>
<path d="M26.7525 29.2518L21.3487 25.716L23.4292 21.9016C23.931 20.9492 24.1939 19.8891 24.1953 18.8125V12.7656C24.1936 10.4479 23.2725 8.22542 21.6343 6.58587C19.996 4.94632 17.7743 4.02356 15.4565 4.02002C10.6428 4.02002 6.72656 7.94335 6.72656 12.7656V18.8125C6.72143 19.8886 6.98147 20.9494 7.48368 21.901L9.57556 25.7361L4.20317 29.2518C3.33646 29.8178 2.62481 30.5913 2.1328 31.5021C1.6408 32.4128 1.38401 33.432 1.38574 34.4672L1.34375 41.6563H29.5703V34.4751C29.573 33.4386 29.3167 32.4179 28.8246 31.5057C28.3324 30.5935 27.6202 29.8187 26.7525 29.2518ZM26.8828 38.9688H4.04687L4.07291 34.4751C4.07088 33.885 4.21635 33.3038 4.4961 32.7843C4.77585 32.2648 5.181 31.8234 5.67474 31.5003L13.1226 26.6268L9.84297 20.6142C9.55865 20.0563 9.41161 19.4386 9.41406 18.8125V12.7656C9.41406 11.1619 10.0511 9.62387 11.1851 8.48986C12.3192 7.35585 13.8572 6.71877 15.4609 6.71877C17.0647 6.71877 18.6027 7.35585 19.7367 8.48986C20.8707 9.62387 21.5078 11.1619 21.5078 12.7656V18.8125C21.5075 19.4394 21.3574 20.0571 21.0698 20.6142L17.8015 26.6063L25.281 31.5004C25.7747 31.8235 26.1799 32.2649 26.4596 32.7844C26.7393 33.3039 26.8848 33.8851 26.8828 34.4752V38.9688Z" fill="#E52D27"/>
</svg>
