<svg width="42" height="42" viewBox="0 0 42 42" fill="none" xmlns="http://www.w3.org/2000/svg">
<path d="M20.568 3.41626C11.1172 3.41797 3.42689 11.1083 3.42517 20.5608C3.42517 30.0134 11.1155 37.7037 20.5697 37.7037C30.0223 37.702 37.7126 30.0117 37.7126 20.5608C37.7126 11.1083 30.0223 3.41797 20.568 3.41626V3.41626ZM20.5697 34.2751C13.0063 34.2751 6.85374 28.1225 6.85374 20.5608C6.85546 12.9991 13.008 6.84655 20.568 6.84483C28.1315 6.84655 34.284 12.9991 34.284 20.5608C34.284 28.1208 28.1315 34.2734 20.5697 34.2751Z" fill="white"/>
<path d="M20.5934 13.6952L13.7277 20.5609L20.5934 27.4249V22.2752H27.4402V18.8466H20.5934V13.6952Z" fill="white"/>
</svg>
