<svg width="658" height="974" viewBox="0 0 658 974" fill="none" xmlns="http://www.w3.org/2000/svg">
<path d="M152.248 411.927C99.0279 500.301 172.478 571.638 172.478 571.638L315.153 411.927C315.153 411.927 285.243 372.356 294.923 348.043C302.978 327.813 383.297 332.072 383.297 332.072L510.017 188.332C510.017 188.332 510.017 272.447 572.837 322.489C584.866 332.072 543.066 344.983 541.943 360.82C541.048 373.435 559.409 377.183 556.849 389.568C554.071 403.012 528.101 409.798 528.101 409.798C528.101 409.798 548.514 415.156 549.413 426.834C550.477 440.675 528.101 443.87 528.101 443.87C528.101 443.87 535.571 468.359 528.101 498.171C520.632 527.984 442.19 508.478 417.385 504.56C371.601 497.328 364.148 621.681 374.796 667.465C377.024 677.048 390.767 675.983 491.9 631.264C593.034 586.545 658 411.927 658 348.043C658 284.159 636.173 187.512 580.274 127.642C580.274 127.642 521.73 50.7129 420.563 110.606C368.407 141.484 372.649 224.533 372.649 224.533C372.649 224.533 315.153 224.533 282.146 263.929C249.139 303.324 251.269 360.82 251.269 360.82C251.269 360.82 200.178 360.82 152.248 411.927Z" fill="white"/>
<path d="M450.718 26.9667L54.6354 474.157C54.6354 474.157 -28.4057 399.626 36.5349 313.382C69.2245 269.968 130.232 268.662 130.232 268.662C130.232 268.662 132.574 204.251 156.85 174.965C193.038 131.311 251.612 131.311 251.612 131.311C251.612 131.311 239.546 72.7506 291.008 26.9667C356.83 -31.594 450.718 26.9667 450.718 26.9667Z" fill="#B31217"/>
<path d="M71.3375 103.155C0.00415914 186.689 0 269.254 0 269.254C0 269.254 20.071 242.11 38.3306 231.988C56.3239 222.014 89.4381 219.212 89.4381 219.212C89.4381 219.212 85.175 170.234 123.51 131.903C161.845 93.5723 212.948 93.5723 212.948 93.5723C212.948 93.5723 211.844 63.3542 218.272 45.659C225.599 25.4871 250.214 0.939941 250.214 0.939941C250.214 0.939941 152.261 8.39079 71.3375 103.155Z" fill="white"/>
<path d="M450.387 284.159C450.387 292.066 457.787 299.649 463.378 305.24C468.969 310.831 476.552 313.972 484.459 313.972C492.366 313.972 499.949 310.831 505.54 305.24C511.131 299.649 517.466 292.066 517.466 284.159L484.459 284.159L450.387 284.159Z" fill="white"/>
<path d="M329.012 426.835L363.083 482.202L329.012 536.504L292.811 482.202L329.012 426.835Z" fill="#B31217"/>
<path d="M62.8676 327.418L126.11 342.475V392.166H76.4195L62.8676 327.418Z" fill="black"/>
<path d="M179.99 184.743L243.232 199.801L250.93 253.729L193.542 249.491L179.99 184.743Z" fill="black"/>
<path d="M307.758 48.4547L371 63.5124L375.467 113.203H321.31L307.758 48.4547Z" fill="black"/>
<path d="M132.296 766.126C136.357 766.126 139.634 766.518 142.128 767.302C144.693 768.014 147.187 769.047 149.609 770.401C150.393 770.828 151.069 771.184 151.639 771.469C152.281 771.754 152.815 771.897 153.242 771.897C153.884 771.897 154.382 771.541 154.739 770.828C155.095 770.045 155.38 768.833 155.594 767.195H158.052C157.695 772.324 157.517 781.017 157.517 793.271H155.059C154.774 789.21 153.848 785.327 152.281 781.622C150.713 777.917 148.576 774.889 145.868 772.538C143.161 770.187 140.026 769.011 136.464 769.011C133.187 769.011 130.55 769.902 128.556 771.683C126.561 773.393 125.563 775.816 125.563 778.95C125.563 781.373 126.097 783.475 127.166 785.256C128.235 787.037 129.802 788.782 131.868 790.492C133.935 792.131 137.319 794.589 142.021 797.866C142.449 798.08 142.84 798.329 143.197 798.614C143.624 798.899 144.016 799.184 144.372 799.469C148.291 802.177 151.426 804.599 153.777 806.737C156.128 808.803 158.016 811.225 159.441 814.004C160.937 816.782 161.685 819.988 161.685 823.622C161.685 828.253 160.367 832.172 157.731 835.378C155.166 838.513 151.675 840.864 147.258 842.431C142.84 843.999 137.96 844.782 132.617 844.782C128.271 844.782 124.637 844.426 121.716 843.714C118.866 843.001 116.194 842.039 113.701 840.828C112.133 839.831 110.922 839.332 110.067 839.332C109.426 839.332 108.927 839.724 108.571 840.508C108.215 841.22 107.93 842.396 107.716 844.034H105.258C105.543 839.189 105.685 828.859 105.685 813.042H108.143C108.642 821.52 110.423 828.396 113.487 833.668C116.55 838.94 121.253 841.576 127.594 841.576C131.512 841.576 134.611 840.65 136.891 838.798C139.243 836.945 140.418 834.38 140.418 831.103C140.418 827.042 139.136 823.586 136.571 820.737C134.077 817.815 130.159 814.574 124.815 811.011C120.54 808.162 117.12 805.668 114.556 803.53C111.991 801.393 109.889 798.935 108.25 796.156C106.612 793.307 105.792 790.029 105.792 786.324C105.792 781.836 107.003 778.095 109.426 775.103C111.848 772.039 115.054 769.795 119.044 768.37C123.105 766.874 127.522 766.126 132.296 766.126ZM264.666 767.943C268.015 767.943 270.758 767.836 272.895 767.622V769.76C268.692 771.826 265.379 776.813 262.956 784.721L245.002 843.286C242.722 843.144 240.834 843.072 239.338 843.072C237.913 843.072 236.061 843.144 233.781 843.286L219.888 800.859L204.819 843.286C202.539 843.144 200.651 843.072 199.155 843.072C197.73 843.072 195.877 843.144 193.598 843.286L168.804 776.599C167.949 774.319 166.951 772.645 165.811 771.576C164.671 770.436 163.567 769.831 162.498 769.76V767.622C167.628 767.836 173.934 767.943 181.414 767.943C187.898 767.943 192.636 767.836 195.628 767.622V769.76C193.704 770.116 192.743 771.541 192.743 774.034C192.743 775.531 193.063 777.098 193.704 778.737L209.201 822.34L218.605 796.905L211.338 774.782C210.768 773.001 210.056 771.754 209.201 771.042C208.346 770.33 207.241 769.902 205.888 769.76V767.622C210.661 767.836 216.824 767.943 224.376 767.943C231.786 767.943 237.307 767.836 240.941 767.622V769.76C238.376 769.831 236.524 770.151 235.384 770.721C234.244 771.291 233.674 772.324 233.674 773.821C233.674 775.174 234.03 776.813 234.743 778.737L248.849 821.592L257.078 795.195C259.002 788.854 259.964 783.866 259.964 780.233C259.964 776.67 259.145 774.07 257.506 772.431C255.938 770.793 253.659 769.902 250.666 769.76V767.622C256.01 767.836 260.676 767.943 264.666 767.943ZM336.137 825.332C336.137 832.599 336.386 838.584 336.885 843.286C332.04 843.072 323.883 842.966 312.412 842.966C295.74 842.966 283.272 843.072 275.007 843.286V841.149C277.287 841.006 278.926 840.721 279.924 840.294C280.992 839.866 281.705 839.047 282.061 837.836C282.417 836.625 282.595 834.665 282.595 831.958V778.95C282.595 776.243 282.382 774.284 281.954 773.073C281.598 771.861 280.921 771.042 279.924 770.615C278.926 770.187 277.287 769.902 275.007 769.76V767.622C283.272 767.836 295.74 767.943 312.412 767.943C322.885 767.943 330.331 767.836 334.748 767.622C334.249 774.319 334 780.304 334 785.576C334 788.854 334.107 791.419 334.32 793.271H331.862C330.58 785.006 328.193 779.093 324.702 775.531C321.211 771.897 317.043 770.08 312.198 770.08H310.809C308.885 770.08 307.46 770.258 306.534 770.615C305.679 770.9 305.074 771.505 304.717 772.431C304.432 773.286 304.29 774.747 304.29 776.813V804.172H305.359C309.063 804.172 312.234 802.711 314.87 799.79C317.506 796.869 319.18 793.627 319.893 790.065H322.351C322.137 793.057 322.03 796.406 322.03 800.111V805.24C322.03 808.874 322.244 813.933 322.672 820.416H320.213C319.572 816.355 317.898 813.006 315.191 810.37C312.554 807.663 309.277 806.309 305.359 806.309H304.29V834.095C304.29 836.161 304.432 837.658 304.717 838.584C305.074 839.439 305.679 840.044 306.534 840.401C307.46 840.686 308.885 840.828 310.809 840.828H314.336C318.468 840.828 322.387 838.833 326.091 834.843C329.796 830.782 332.432 824.335 334 815.5H336.458C336.244 818.065 336.137 821.342 336.137 825.332ZM405.644 825.332C405.644 832.599 405.894 838.584 406.392 843.286C401.548 843.072 393.39 842.966 381.919 842.966C365.248 842.966 352.779 843.072 344.515 843.286V841.149C346.795 841.006 348.433 840.721 349.431 840.294C350.499 839.866 351.212 839.047 351.568 837.836C351.924 836.625 352.103 834.665 352.103 831.958V778.95C352.103 776.243 351.889 774.284 351.461 773.073C351.105 771.861 350.428 771.042 349.431 770.615C348.433 770.187 346.795 769.902 344.515 769.76V767.622C352.779 767.836 365.248 767.943 381.919 767.943C392.392 767.943 399.838 767.836 404.255 767.622C403.756 774.319 403.507 780.304 403.507 785.576C403.507 788.854 403.614 791.419 403.828 793.271H401.37C400.087 785.006 397.7 779.093 394.209 775.531C390.718 771.897 386.55 770.08 381.705 770.08H380.316C378.393 770.08 376.968 770.258 376.041 770.615C375.186 770.9 374.581 771.505 374.225 772.431C373.94 773.286 373.797 774.747 373.797 776.813V804.172H374.866C378.571 804.172 381.741 802.711 384.377 799.79C387.013 796.869 388.688 793.627 389.4 790.065H391.858C391.644 793.057 391.538 796.406 391.538 800.111V805.24C391.538 808.874 391.751 813.933 392.179 820.416H389.721C389.08 816.355 387.405 813.006 384.698 810.37C382.062 807.663 378.784 806.309 374.866 806.309H373.797V834.095C373.797 836.161 373.94 837.658 374.225 838.584C374.581 839.439 375.186 840.044 376.041 840.401C376.968 840.686 378.393 840.828 380.316 840.828H383.843C387.975 840.828 391.894 838.833 395.599 834.843C399.303 830.782 401.94 824.335 403.507 815.5H405.965C405.751 818.065 405.644 821.342 405.644 825.332ZM483.274 767.622C482.775 775.531 482.526 782.584 482.526 788.782C482.526 792.06 482.633 794.625 482.846 796.477H480.388C478.037 787.144 475.009 780.411 471.304 776.279C467.599 772.146 463.61 770.08 459.335 770.08H459.228V831.21C459.228 834.202 459.513 836.375 460.083 837.729C460.724 839.083 461.829 840.009 463.396 840.508C465.035 840.935 467.599 841.149 471.091 841.149V843.286C461.045 843.072 453.243 842.966 447.686 842.966C442.628 842.966 435.289 843.072 425.671 843.286V841.149C429.162 841.149 431.691 840.935 433.259 840.508C434.897 840.009 436.002 839.083 436.572 837.729C437.213 836.375 437.533 834.202 437.533 831.21V770.08H437.427C433.08 770.08 429.055 772.146 425.35 776.279C421.717 780.34 418.724 787.073 416.373 796.477H413.915C414.129 794.625 414.236 792.06 414.236 788.782C414.236 782.584 413.986 775.531 413.488 767.622C420.256 767.836 431.905 767.943 448.434 767.943C464.892 767.943 476.505 767.836 483.274 767.622ZM557.999 767.622C557.501 775.531 557.251 782.584 557.251 788.782C557.251 792.06 557.358 794.625 557.572 796.477H555.114C552.763 787.144 549.735 780.411 546.03 776.279C542.325 772.146 538.335 770.08 534.06 770.08H533.954V831.21C533.954 834.202 534.238 836.375 534.808 837.729C535.45 839.083 536.554 840.009 538.121 840.508C539.76 840.935 542.325 841.149 545.816 841.149V843.286C535.77 843.072 527.969 842.966 522.412 842.966C517.353 842.966 510.015 843.072 500.396 843.286V841.149C503.887 841.149 506.417 840.935 507.984 840.508C509.623 840.009 510.727 839.083 511.297 837.729C511.938 836.375 512.259 834.202 512.259 831.21V770.08H512.152C507.806 770.08 503.781 772.146 500.076 776.279C496.442 780.34 493.45 787.073 491.099 796.477H488.641C488.854 794.625 488.961 792.06 488.961 788.782C488.961 782.584 488.712 775.531 488.213 767.622C494.982 767.836 506.63 767.943 523.16 767.943C539.618 767.943 551.231 767.836 557.999 767.622ZM207.744 895.126C212.304 895.126 216.223 895.732 219.5 896.943C222.778 898.154 225.77 899.864 228.477 902.073C229.261 902.714 229.973 903.034 230.615 903.034C231.327 903.034 231.897 902.536 232.325 901.538C232.752 900.469 233.073 898.831 233.286 896.622H235.744C235.459 901.681 235.317 910.587 235.317 923.34H232.859C232.36 917.711 231.434 913.258 230.08 909.981C228.727 906.704 226.375 903.925 223.027 901.645C221.531 900.648 219.785 899.864 217.79 899.294C215.867 898.724 213.943 898.439 212.019 898.439C206.89 898.439 202.722 900.256 199.516 903.889C196.381 907.452 194.136 911.976 192.783 917.462C191.5 922.948 190.859 928.683 190.859 934.668C190.859 947.065 192.355 956.327 195.348 962.454C198.411 968.581 202.65 971.645 208.065 971.645C210.274 971.645 212.019 971.217 213.302 970.362C214.798 969.294 215.546 967.513 215.546 965.019V954.332C215.546 950.77 215.261 948.169 214.691 946.53C214.121 944.821 213.088 943.681 211.592 943.111C210.167 942.469 207.887 942.078 204.752 941.935V939.798C209.597 940.011 216.401 940.118 225.164 940.118C232.503 940.118 237.989 940.011 241.622 939.798V941.935C240.34 942.078 239.378 942.363 238.737 942.79C238.167 943.217 237.775 944.037 237.561 945.248C237.347 946.459 237.241 948.418 237.241 951.126V972.286H235.103C235.032 970.79 234.711 969.401 234.141 968.118C233.571 966.836 232.788 966.195 231.79 966.195C230.294 966.195 227.872 967.014 224.523 968.653C217.398 972.072 211.378 973.782 206.462 973.782C193.21 973.782 183.2 970.434 176.432 963.737C169.663 957.039 166.279 947.492 166.279 935.095C166.279 927.258 168.024 920.312 171.516 914.256C175.078 908.2 179.994 903.497 186.264 900.149C192.533 896.8 199.694 895.126 207.744 895.126ZM283.073 898.76C280.793 898.902 279.119 899.187 278.05 899.615C277.052 900.042 276.376 900.861 276.019 902.073C275.663 903.284 275.485 905.243 275.485 907.95V960.958C275.485 963.665 275.663 965.625 276.019 966.836C276.447 968.047 277.159 968.866 278.157 969.294C279.154 969.721 280.793 970.006 283.073 970.149V972.286C278.941 972.072 272.991 971.966 265.226 971.966C256.605 971.966 250.264 972.072 246.203 972.286V970.149C248.483 970.006 250.121 969.721 251.119 969.294C252.187 968.866 252.9 968.047 253.256 966.836C253.612 965.625 253.79 963.665 253.79 960.958V907.95C253.79 905.243 253.577 903.284 253.149 902.073C252.793 900.861 252.116 900.042 251.119 899.615C250.121 899.187 248.483 898.902 246.203 898.76V896.622C250.264 896.836 256.605 896.943 265.226 896.943C272.92 896.943 278.869 896.836 283.073 896.622V898.76ZM365.829 968.011C363.692 970.149 361.341 971.645 358.776 972.5C356.211 973.355 353.219 973.782 349.799 973.782C344.883 973.782 341.071 972.927 338.364 971.217C335.656 969.436 333.982 966.444 333.341 962.24L331.738 951.553C331.025 946.566 330.028 942.79 328.746 940.225C327.534 937.66 325.682 936.378 323.188 936.378H318.379V960.958C318.379 963.665 318.557 965.625 318.914 966.836C319.341 968.047 320.053 968.866 321.051 969.294C322.048 969.721 323.687 970.006 325.967 970.149V972.286C321.835 972.072 315.886 971.966 308.12 971.966C299.499 971.966 293.158 972.072 289.097 972.286V970.149C291.377 970.006 293.015 969.721 294.013 969.294C295.082 968.866 295.794 968.047 296.15 966.836C296.506 965.625 296.685 963.665 296.685 960.958V907.95C296.685 905.243 296.471 903.284 296.043 902.073C295.687 900.861 295.01 900.042 294.013 899.615C293.015 899.187 291.377 898.902 289.097 898.76V896.622C293.158 896.836 299.285 896.943 307.478 896.943L319.768 896.836C321.193 896.765 322.832 896.729 324.685 896.729C335.514 896.729 343.565 898.261 348.837 901.324C354.181 904.388 356.852 909.055 356.852 915.324C356.852 920.668 354.857 925.228 350.868 929.004C346.878 932.78 340.181 935.095 330.776 935.95C338.043 936.449 343.529 937.838 347.234 940.118C350.939 942.327 353.219 945.604 354.074 949.95L356.318 961.065C356.817 963.701 357.422 965.518 358.135 966.515C358.847 967.513 359.845 968.011 361.127 968.011C362.41 968.011 363.514 967.548 364.44 966.622L365.829 968.011ZM324.15 898.76C322.511 898.76 321.265 899.009 320.41 899.508C319.626 900.006 319.092 900.897 318.807 902.179C318.522 903.462 318.379 905.386 318.379 907.95V934.24H321.265C326.323 934.24 329.779 932.709 331.631 929.645C333.483 926.51 334.41 922.128 334.41 916.5C334.41 910.658 333.59 906.24 331.952 903.248C330.384 900.256 327.784 898.76 324.15 898.76ZM404.057 898.76C401.492 898.902 399.604 899.187 398.393 899.615C397.253 900.042 396.469 900.861 396.042 902.073C395.614 903.284 395.401 905.243 395.401 907.95V963.095C395.401 965.09 395.543 966.551 395.828 967.477C396.113 968.403 396.612 969.044 397.324 969.401C398.037 969.686 399.212 969.828 400.851 969.828H404.378C406.871 969.828 409.579 968.581 412.5 966.088C415.421 963.594 418.057 960.317 420.408 956.256C422.759 952.123 424.327 947.849 425.111 943.431H427.569C427.355 945.996 427.248 949.273 427.248 953.263C427.248 960.958 427.497 967.299 427.996 972.286C423.151 972.072 414.994 971.966 403.523 971.966C386.851 971.966 374.383 972.072 366.118 972.286V970.149C368.398 970.006 370.037 969.721 371.034 969.294C372.103 968.866 372.816 968.047 373.172 966.836C373.528 965.625 373.706 963.665 373.706 960.958V907.95C373.706 905.243 373.492 903.284 373.065 902.073C372.709 900.861 372.032 900.042 371.034 899.615C370.037 899.187 368.398 898.902 366.118 898.76V896.622C370.179 896.836 376.52 896.943 385.141 896.943C393.335 896.943 399.64 896.836 404.057 896.622V898.76ZM462.299 895.126C466.36 895.126 469.637 895.518 472.131 896.302C474.696 897.014 477.189 898.047 479.612 899.401C480.395 899.828 481.072 900.184 481.642 900.469C482.284 900.754 482.818 900.897 483.245 900.897C483.887 900.897 484.385 900.541 484.742 899.828C485.098 899.045 485.383 897.833 485.596 896.195H488.054C487.698 901.324 487.52 910.017 487.52 922.271H485.062C484.777 918.21 483.851 914.327 482.284 910.622C480.716 906.917 478.579 903.889 475.871 901.538C473.164 899.187 470.029 898.011 466.467 898.011C463.189 898.011 460.553 898.902 458.558 900.683C456.563 902.393 455.566 904.816 455.566 907.95C455.566 910.373 456.1 912.475 457.169 914.256C458.238 916.037 459.805 917.782 461.871 919.492C463.937 921.131 467.322 923.589 472.024 926.866C472.451 927.08 472.843 927.329 473.2 927.614C473.627 927.899 474.019 928.184 474.375 928.469C478.294 931.177 481.429 933.599 483.78 935.737C486.131 937.803 488.019 940.225 489.444 943.004C490.94 945.782 491.688 948.988 491.688 952.622C491.688 957.253 490.37 961.172 487.734 964.378C485.169 967.513 481.678 969.864 477.261 971.431C472.843 972.999 467.963 973.782 462.619 973.782C458.273 973.782 454.64 973.426 451.719 972.714C448.869 972.001 446.197 971.039 443.703 969.828C442.136 968.831 440.925 968.332 440.07 968.332C439.429 968.332 438.93 968.724 438.574 969.508C438.217 970.22 437.932 971.396 437.719 973.034H435.261C435.546 968.189 435.688 957.859 435.688 942.042H438.146C438.645 950.52 440.426 957.396 443.49 962.668C446.553 967.94 451.256 970.576 457.597 970.576C461.515 970.576 464.614 969.65 466.894 967.798C469.245 965.945 470.421 963.38 470.421 960.103C470.421 956.042 469.139 952.586 466.574 949.737C464.08 946.815 460.161 943.574 454.818 940.011C450.543 937.162 447.123 934.668 444.558 932.53C441.994 930.393 439.892 927.935 438.253 925.156C436.614 922.307 435.795 919.029 435.795 915.324C435.795 910.836 437.006 907.095 439.429 904.103C441.851 901.039 445.057 898.795 449.047 897.37C453.108 895.874 457.525 895.126 462.299 895.126Z" fill="white"/>
</svg>
