<svg width="65" height="95" viewBox="0 0 65 95" fill="none" xmlns="http://www.w3.org/2000/svg">
<path d="M15.0397 40.5991C9.78239 49.329 17.0381 56.376 17.0381 56.376L31.1322 40.5991C31.1322 40.5991 28.1775 36.6901 29.1337 34.2883C29.9294 32.2899 37.8636 32.7106 37.8636 32.7106L50.3817 18.5114C50.3817 18.5114 50.3817 26.8206 56.5872 31.764C57.7755 32.7106 53.6463 33.986 53.5354 35.5505C53.447 36.7966 55.2608 37.1669 55.0079 38.3903C54.7334 39.7184 52.1681 40.3887 52.1681 40.3887C52.1681 40.3887 54.1846 40.918 54.2733 42.0716C54.3785 43.4389 52.1681 43.7545 52.1681 43.7545C52.1681 43.7545 52.906 46.1736 52.1681 49.1186C51.4302 52.0636 43.6814 50.1367 41.231 49.7497C36.7083 49.0353 35.9721 61.3194 37.0239 65.8421C37.244 66.7888 38.6016 66.6836 48.592 62.2661C58.5824 57.8485 65 40.5991 65 34.2883C65 27.9776 62.8439 18.4304 57.3219 12.5162C57.3219 12.5162 51.5386 4.9168 41.5449 10.8333C36.3928 13.8835 36.8118 22.0875 36.8118 22.0875C36.8118 22.0875 31.1322 22.0875 27.8716 25.9791C24.611 29.8708 24.8214 35.5505 24.8214 35.5505C24.8214 35.5505 19.7744 35.5505 15.0397 40.5991Z" fill="white"/>
<path d="M44.524 2.57105L5.39724 46.7464C5.39724 46.7464 -2.80591 39.3839 3.60919 30.8643C6.83841 26.5758 12.865 26.4468 12.865 26.4468C12.865 26.4468 13.0964 20.0839 15.4945 17.191C19.0692 12.8786 24.8554 12.8786 24.8554 12.8786C24.8554 12.8786 23.6635 7.09378 28.7471 2.57105C35.2493 -3.21382 44.524 2.57105 44.524 2.57105Z" fill="#B31217"/>
<path d="M7.04702 10.0972C0.000410857 18.349 0 26.5052 0 26.5052C0 26.5052 1.9827 23.8238 3.78646 22.8239C5.56391 21.8386 8.83507 21.5618 8.83507 21.5618C8.83507 21.5618 8.41394 16.7235 12.2008 12.9371C15.9877 9.15061 21.0359 9.15061 21.0359 9.15061C21.0359 9.15061 20.9268 6.16554 21.5618 4.41754C22.2856 2.42487 24.7172 0 24.7172 0C24.7172 0 15.041 0.736026 7.04702 10.0972Z" fill="white"/>
<path d="M44.4911 27.9776C44.4911 28.7587 45.2221 29.5077 45.7744 30.06C46.3267 30.6123 47.0758 30.9226 47.8569 30.9226C48.6379 30.9226 49.387 30.6123 49.9393 30.06C50.4916 29.5077 51.1174 28.7587 51.1174 27.9776L47.8569 27.9776L44.4911 27.9776Z" fill="white"/>
<path d="M32.5011 42.0718L35.8669 47.5411L32.5011 52.9053L28.925 47.5411L32.5011 42.0718Z" fill="#B31217"/>
<path d="M6.21033 32.2509L12.4577 33.7383L12.4577 38.6469L7.54904 38.6469L6.21033 32.2509Z" fill="black"/>
<path d="M17.7801 18.1569L24.0275 19.6443L24.788 24.9716L19.1189 24.5529L17.7801 18.1569Z" fill="black"/>
<path d="M30.4015 4.69373L36.6488 6.18119L37.0901 11.0898L31.7402 11.0898L30.4015 4.69373Z" fill="black"/>
<path d="M12.5019 78.8064V80.3149C12.5019 80.5634 12.5256 80.7438 12.5729 80.8562C12.6262 80.9686 12.7179 81.0455 12.848 81.0869C12.9841 81.1224 13.197 81.1401 13.4869 81.1401V81.3442C12.6883 81.3265 12.079 81.3176 11.659 81.3176C11.3809 81.3176 10.9935 81.3235 10.4965 81.3354L10.0706 81.3442V81.1668C10.2599 81.1549 10.396 81.1313 10.4788 81.0958C10.5675 81.0603 10.6267 80.9923 10.6563 80.8917C10.6858 80.7911 10.7006 80.6284 10.7006 80.4037V76.0024C10.7006 75.7776 10.6829 75.6149 10.6474 75.5144C10.6178 75.4138 10.5616 75.3458 10.4788 75.3103C10.396 75.2748 10.2599 75.2511 10.0706 75.2393V75.0618C10.4078 75.0796 10.9165 75.0884 11.5968 75.0884L12.6173 75.0796C12.7356 75.0737 12.8717 75.0707 13.0255 75.0707C13.901 75.0707 14.5635 75.2304 15.0131 75.5499C15.4686 75.8634 15.6964 76.2864 15.6964 76.8188C15.6964 77.1441 15.6077 77.4577 15.4302 77.7594C15.2527 78.0551 14.951 78.3036 14.5251 78.5047C14.0992 78.7059 13.5342 78.8064 12.8303 78.8064H12.5019ZM12.9811 75.2393C12.845 75.2393 12.7415 75.26 12.6705 75.3014C12.6055 75.3428 12.5611 75.4168 12.5374 75.5232C12.5138 75.6297 12.5019 75.7895 12.5019 76.0024V78.629H12.7415C13.1556 78.629 13.4396 78.4752 13.5934 78.1675C13.7531 77.8599 13.833 77.4429 13.833 76.9164C13.833 76.3426 13.7679 75.9196 13.6377 75.6475C13.5076 75.3754 13.2887 75.2393 12.9811 75.2393ZM22.3863 80.9893C22.2088 81.1668 22.0136 81.291 21.8006 81.362C21.5877 81.433 21.3392 81.4685 21.0553 81.4685C20.6471 81.4685 20.3306 81.3975 20.1058 81.2555C19.881 81.1076 19.742 80.8592 19.6887 80.5101L19.5556 79.6228C19.4965 79.2087 19.4137 78.8952 19.3072 78.6822C19.2066 78.4692 19.0528 78.3628 18.8458 78.3628H18.4465V80.4037C18.4465 80.6284 18.4613 80.7911 18.4908 80.8917C18.5263 80.9923 18.5855 81.0603 18.6683 81.0958C18.7511 81.1313 18.8872 81.1549 19.0765 81.1668V81.3442C18.7334 81.3265 18.2394 81.3176 17.5946 81.3176C16.8788 81.3176 16.3523 81.3265 16.0151 81.3442V81.1668C16.2044 81.1549 16.3405 81.1313 16.4233 81.0958C16.5121 81.0603 16.5712 80.9923 16.6008 80.8917C16.6304 80.7911 16.6452 80.6284 16.6452 80.4037V76.0024C16.6452 75.7776 16.6274 75.6149 16.5919 75.5144C16.5623 75.4138 16.5061 75.3458 16.4233 75.3103C16.3405 75.2748 16.2044 75.2511 16.0151 75.2393V75.0618C16.3523 75.0796 16.8611 75.0884 17.5414 75.0884L18.5618 75.0796C18.6801 75.0737 18.8162 75.0707 18.97 75.0707C19.8692 75.0707 20.5376 75.1979 20.9754 75.4523C21.4191 75.7066 21.6409 76.0941 21.6409 76.6147C21.6409 77.0584 21.4753 77.437 21.144 77.7505C20.8127 78.064 20.2567 78.2563 19.4758 78.3273C20.0792 78.3687 20.5347 78.484 20.8423 78.6733C21.1499 78.8567 21.3392 79.1288 21.4102 79.4897L21.5965 80.4125C21.638 80.6314 21.6882 80.7823 21.7474 80.8651C21.8065 80.9479 21.8894 80.9893 21.9958 80.9893C22.1023 80.9893 22.194 80.9508 22.2709 80.8739L22.3863 80.9893ZM18.9256 75.2393C18.7896 75.2393 18.686 75.26 18.6151 75.3014C18.55 75.3428 18.5056 75.4168 18.482 75.5232C18.4583 75.6297 18.4465 75.7895 18.4465 76.0024V78.1853H18.686C19.1061 78.1853 19.393 78.0581 19.5468 77.8037C19.7006 77.5434 19.7775 77.1796 19.7775 76.7123C19.7775 76.2272 19.7095 75.8604 19.5734 75.612C19.4432 75.3635 19.2273 75.2393 18.9256 75.2393ZM25.4716 75.2393C25.2823 75.2511 25.1433 75.2748 25.0546 75.3103C24.9717 75.3458 24.9155 75.4138 24.886 75.5144C24.8564 75.6149 24.8416 75.7776 24.8416 76.0024V80.4037C24.8416 80.6284 24.8564 80.7911 24.886 80.8917C24.9215 80.9923 24.9806 81.0603 25.0634 81.0958C25.1462 81.1313 25.2823 81.1549 25.4716 81.1668V81.3442C25.1285 81.3265 24.6345 81.3176 23.9897 81.3176C23.2739 81.3176 22.7475 81.3265 22.4103 81.3442V81.1668C22.5996 81.1549 22.7356 81.1313 22.8184 81.0958C22.9072 81.0603 22.9663 80.9923 22.9959 80.8917C23.0255 80.7911 23.0403 80.6284 23.0403 80.4037V76.0024C23.0403 75.7776 23.0225 75.6149 22.987 75.5144C22.9575 75.4138 22.9013 75.3458 22.8184 75.3103C22.7356 75.2748 22.5996 75.2511 22.4103 75.2393V75.0618C22.7475 75.0796 23.2739 75.0884 23.9897 75.0884C24.6286 75.0884 25.1226 75.0796 25.4716 75.0618V75.2393ZM32.0057 75.2393C31.8223 75.2807 31.6863 75.3458 31.5976 75.4345C31.5088 75.5173 31.4497 75.6475 31.4201 75.8249C31.3905 76.0024 31.3757 76.2686 31.3757 76.6236V81.3442C31.2574 81.3324 31.1598 81.3265 31.0829 81.3265C31.0178 81.3265 30.9084 81.3324 30.7546 81.3442L26.8236 77.0495V79.605C26.8236 80.0428 26.8414 80.3593 26.8769 80.5545C26.9124 80.7438 26.9893 80.8828 27.1076 80.9716C27.2318 81.0603 27.4359 81.1254 27.7199 81.1668V81.3442C27.4773 81.3265 27.146 81.3176 26.726 81.3176C26.4125 81.3176 26.167 81.3265 25.9895 81.3442V81.1668C26.1729 81.1254 26.309 81.0632 26.3977 80.9804C26.4864 80.8917 26.5456 80.7586 26.5752 80.5811C26.6048 80.4037 26.6195 80.1374 26.6195 79.7825V76.0024C26.6195 75.7776 26.6018 75.6149 26.5663 75.5144C26.5367 75.4138 26.4805 75.3458 26.3977 75.3103C26.3149 75.2748 26.1788 75.2511 25.9895 75.2393V75.0618C26.167 75.0796 26.4125 75.0884 26.726 75.0884C27.0455 75.0884 27.3176 75.0796 27.5424 75.0618L31.1716 78.8952V76.801C31.1716 76.3633 31.1539 76.0497 31.1184 75.8604C31.0829 75.6652 31.003 75.5232 30.8788 75.4345C30.7605 75.3458 30.5594 75.2807 30.2754 75.2393V75.0618C30.5179 75.0796 30.8492 75.0884 31.2692 75.0884C31.5828 75.0884 31.8283 75.0796 32.0057 75.0618V75.2393ZM35.8354 74.9376C36.1903 74.9376 36.492 74.9879 36.7405 75.0884C36.9889 75.189 37.2315 75.331 37.4681 75.5144C37.5273 75.5676 37.5835 75.5942 37.6367 75.5942C37.755 75.5942 37.8319 75.4168 37.8674 75.0618H38.0715C38.0478 75.4818 38.036 76.2213 38.036 77.2802H37.8319C37.7905 76.8069 37.7136 76.4343 37.6012 76.1621C37.4888 75.89 37.2936 75.6623 37.0156 75.4789C36.7375 75.3014 36.4625 75.2127 36.1903 75.2127C35.5751 75.2127 35.1433 75.5085 34.8948 76.1C34.6463 76.6916 34.5221 77.3985 34.5221 78.2208C34.5221 79.0431 34.6463 79.75 34.8948 80.3415C35.1433 80.9331 35.5751 81.2289 36.1903 81.2289C36.4625 81.2289 36.7375 81.1401 37.0156 80.9627C37.2936 80.7911 37.4888 80.5604 37.6012 80.2705C37.7136 79.9807 37.7905 79.5695 37.8319 79.0371H38.036C38.036 80.1434 38.0478 80.9124 38.0715 81.3442H37.8674C37.8497 81.1549 37.823 81.0218 37.7876 80.9449C37.758 80.8621 37.7136 80.8207 37.6545 80.8207C37.6071 80.8207 37.545 80.8444 37.4681 80.8917C37.2019 81.081 36.9475 81.2259 36.705 81.3265C36.4625 81.4211 36.1696 81.4685 35.8265 81.4685C35.1581 81.4685 34.5724 81.3413 34.0696 81.0869C33.5667 80.8325 33.1763 80.4658 32.8983 79.9866C32.6202 79.5015 32.4812 78.9247 32.4812 78.2563C32.4812 77.6056 32.6232 77.0288 32.9072 76.5259C33.1911 76.0231 33.5875 75.6327 34.0962 75.3547C34.6049 75.0766 35.1847 74.9376 35.8354 74.9376ZM43.8463 79.8535C43.8463 80.4569 43.867 80.9538 43.9084 81.3442C43.5062 81.3265 42.8288 81.3176 41.8764 81.3176C40.4922 81.3176 39.4569 81.3265 38.7707 81.3442V81.1668C38.96 81.1549 39.0961 81.1313 39.1789 81.0958C39.2676 81.0603 39.3268 80.9923 39.3564 80.8917C39.3859 80.7911 39.4007 80.6284 39.4007 80.4037V76.0024C39.4007 75.7776 39.383 75.6149 39.3475 75.5144C39.3179 75.4138 39.2617 75.3458 39.1789 75.3103C39.0961 75.2748 38.96 75.2511 38.7707 75.2393V75.0618C39.4569 75.0796 40.4922 75.0884 41.8764 75.0884C42.746 75.0884 43.3642 75.0796 43.731 75.0618C43.6896 75.6179 43.6689 76.1148 43.6689 76.5526C43.6689 76.8247 43.6777 77.0377 43.6955 77.1915H43.4914C43.3849 76.5052 43.1867 76.0142 42.8969 75.7185C42.607 75.4168 42.2609 75.2659 41.8587 75.2659H41.7433C41.5836 75.2659 41.4653 75.2807 41.3884 75.3103C41.3174 75.3339 41.2671 75.3842 41.2375 75.4611C41.2139 75.5321 41.202 75.6534 41.202 75.8249V78.0966H41.2908C41.5984 78.0966 41.8616 77.9753 42.0805 77.7327C42.2994 77.4902 42.4384 77.221 42.4976 76.9253H42.7016C42.6839 77.1737 42.675 77.4517 42.675 77.7594V78.1853C42.675 78.487 42.6928 78.907 42.7283 79.4453H42.5242C42.4709 79.1081 42.3319 78.8301 42.1071 78.6112C41.8882 78.3864 41.6161 78.274 41.2908 78.274H41.202V80.5811C41.202 80.7527 41.2139 80.8769 41.2375 80.9538C41.2671 81.0248 41.3174 81.0751 41.3884 81.1047C41.4653 81.1283 41.5836 81.1401 41.7433 81.1401H42.0361C42.3792 81.1401 42.7046 80.9745 43.0122 80.6432C43.3198 80.306 43.5387 79.7707 43.6689 79.0371H43.8729C43.8552 79.2501 43.8463 79.5222 43.8463 79.8535ZM46.9732 74.9376C47.3104 74.9376 47.5826 74.9701 47.7896 75.0352C48.0026 75.0944 48.2096 75.1801 48.4107 75.2925C48.4758 75.328 48.532 75.3576 48.5793 75.3813C48.6326 75.4049 48.677 75.4168 48.7124 75.4168C48.7657 75.4168 48.8071 75.3872 48.8367 75.328C48.8663 75.263 48.8899 75.1624 48.9077 75.0263H49.1118C49.0822 75.4523 49.0674 76.174 49.0674 77.1915H48.8633C48.8396 76.8543 48.7627 76.5319 48.6326 76.2243C48.5024 75.9166 48.325 75.6652 48.1002 75.47C47.8754 75.2748 47.6151 75.1772 47.3193 75.1772C47.0472 75.1772 46.8283 75.2511 46.6627 75.399C46.497 75.541 46.4142 75.7421 46.4142 76.0024C46.4142 76.2035 46.4586 76.3781 46.5473 76.5259C46.6361 76.6738 46.7662 76.8188 46.9378 76.9607C47.1093 77.0968 47.3903 77.3009 47.7807 77.573C47.8162 77.5908 47.8488 77.6115 47.8783 77.6351C47.9138 77.6588 47.9464 77.6825 47.976 77.7061C48.3013 77.9309 48.5616 78.132 48.7568 78.3095C48.952 78.4811 49.1088 78.6822 49.2271 78.9129C49.3513 79.1436 49.4135 79.4098 49.4135 79.7115C49.4135 80.096 49.304 80.4214 49.0851 80.6876C48.8722 80.9479 48.5823 81.1431 48.2155 81.2733C47.8488 81.4034 47.4435 81.4685 46.9999 81.4685C46.639 81.4685 46.3373 81.4389 46.0948 81.3797C45.8582 81.3206 45.6363 81.2407 45.4293 81.1401C45.2991 81.0573 45.1986 81.0159 45.1276 81.0159C45.0743 81.0159 45.0329 81.0485 45.0033 81.1135C44.9738 81.1727 44.9501 81.2703 44.9324 81.4064H44.7283C44.7519 81.0041 44.7638 80.1463 44.7638 78.833H44.9678C45.0093 79.537 45.1571 80.1079 45.4115 80.5456C45.6659 80.9834 46.0563 81.2023 46.5828 81.2023C46.9082 81.2023 47.1655 81.1254 47.3548 80.9716C47.55 80.8177 47.6476 80.6048 47.6476 80.3327C47.6476 79.9955 47.5412 79.7086 47.3282 79.4719C47.1211 79.2294 46.7958 78.9602 46.3521 78.6645C45.9972 78.4278 45.7132 78.2208 45.5003 78.0433C45.2873 77.8658 45.1128 77.6618 44.9767 77.431C44.8407 77.1944 44.7726 76.9223 44.7726 76.6147C44.7726 76.242 44.8732 75.9314 45.0743 75.683C45.2755 75.4286 45.5417 75.2423 45.8729 75.1239C46.2101 74.9997 46.5769 74.9376 46.9732 74.9376ZM52.4152 74.9376C52.7524 74.9376 53.0245 74.9701 53.2315 75.0352C53.4445 75.0944 53.6515 75.1801 53.8527 75.2925C53.9177 75.328 53.9739 75.3576 54.0213 75.3813C54.0745 75.4049 54.1189 75.4168 54.1544 75.4168C54.2076 75.4168 54.249 75.3872 54.2786 75.328C54.3082 75.263 54.3318 75.1624 54.3496 75.0263H54.5537C54.5241 75.4523 54.5093 76.174 54.5093 77.1915H54.3052C54.2816 76.8543 54.2047 76.5319 54.0745 76.2243C53.9444 75.9166 53.7669 75.6652 53.5421 75.47C53.3173 75.2748 53.057 75.1772 52.7612 75.1772C52.4891 75.1772 52.2702 75.2511 52.1046 75.399C51.939 75.541 51.8561 75.7421 51.8561 76.0024C51.8561 76.2035 51.9005 76.3781 51.9892 76.5259C52.078 76.6738 52.2081 76.8188 52.3797 76.9607C52.5512 77.0968 52.8322 77.3009 53.2227 77.573C53.2582 77.5908 53.2907 77.6115 53.3203 77.6351C53.3558 77.6588 53.3883 77.6825 53.4179 77.7061C53.7432 77.9309 54.0035 78.132 54.1987 78.3095C54.394 78.4811 54.5507 78.6822 54.669 78.9129C54.7933 79.1436 54.8554 79.4098 54.8554 79.7115C54.8554 80.096 54.7459 80.4214 54.5271 80.6876C54.3141 80.9479 54.0242 81.1431 53.6575 81.2733C53.2907 81.4034 52.8855 81.4685 52.4418 81.4685C52.0809 81.4685 51.7792 81.4389 51.5367 81.3797C51.3001 81.3206 51.0782 81.2407 50.8712 81.1401C50.741 81.0573 50.6405 81.0159 50.5695 81.0159C50.5163 81.0159 50.4748 81.0485 50.4453 81.1135C50.4157 81.1727 50.392 81.2703 50.3743 81.4064H50.1702C50.1939 81.0041 50.2057 80.1463 50.2057 78.833H50.4098C50.4512 79.537 50.5991 80.1079 50.8534 80.5456C51.1078 80.9834 51.4983 81.2023 52.0247 81.2023C52.3501 81.2023 52.6074 81.1254 52.7967 80.9716C52.9919 80.8177 53.0896 80.6048 53.0896 80.3327C53.0896 79.9955 52.9831 79.7086 52.7701 79.4719C52.5631 79.2294 52.2377 78.9602 51.794 78.6645C51.4391 78.4278 51.1551 78.2208 50.9422 78.0433C50.7292 77.8658 50.5547 77.6618 50.4186 77.431C50.2826 77.1944 50.2146 76.9223 50.2146 76.6147C50.2146 76.242 50.3151 75.9314 50.5163 75.683C50.7174 75.4286 50.9836 75.2423 51.3149 75.1239C51.6521 74.9997 52.0188 74.9376 52.4152 74.9376ZM25.1529 85.9376C25.5315 85.9376 25.8569 85.9879 26.129 86.0884C26.4011 86.189 26.6496 86.331 26.8744 86.5144C26.9394 86.5676 26.9986 86.5942 27.0518 86.5942C27.111 86.5942 27.1583 86.5528 27.1938 86.47C27.2293 86.3813 27.2559 86.2452 27.2737 86.0618H27.4778C27.4541 86.4818 27.4423 87.2213 27.4423 88.2802H27.2382C27.1968 87.8129 27.1199 87.4431 27.0075 87.171C26.8951 86.8989 26.6999 86.6682 26.4218 86.4789C26.2976 86.3961 26.1527 86.331 25.987 86.2837C25.8273 86.2363 25.6676 86.2127 25.5079 86.2127C25.0819 86.2127 24.7359 86.3635 24.4697 86.6652C24.2094 86.961 24.023 87.3366 23.9106 87.7922C23.8042 88.2477 23.7509 88.7239 23.7509 89.2208C23.7509 90.2501 23.8751 91.0191 24.1236 91.5279C24.378 92.0366 24.73 92.291 25.1795 92.291C25.3629 92.291 25.5079 92.2555 25.6143 92.1845C25.7386 92.0958 25.8007 91.9479 25.8007 91.7408V90.8535C25.8007 90.5577 25.777 90.3418 25.7297 90.2057C25.6824 90.0638 25.5966 89.9691 25.4724 89.9218C25.3541 89.8685 25.1648 89.836 24.9045 89.8242V89.6467C25.3067 89.6645 25.8717 89.6733 26.5993 89.6733C27.2086 89.6733 27.6641 89.6645 27.9658 89.6467V89.8242C27.8593 89.836 27.7795 89.8597 27.7262 89.8952C27.6789 89.9307 27.6464 89.9987 27.6286 90.0993C27.6109 90.1998 27.602 90.3625 27.602 90.5873V92.3442H27.4245C27.4186 92.22 27.392 92.1047 27.3447 91.9982C27.2973 91.8917 27.2323 91.8385 27.1495 91.8385C27.0252 91.8385 26.8241 91.9065 26.5461 92.0425C25.9545 92.3265 25.4546 92.4685 25.0464 92.4685C23.9461 92.4685 23.115 92.1904 22.553 91.6344C21.991 91.0783 21.71 90.2856 21.71 89.2563C21.71 88.6056 21.855 88.0288 22.1448 87.5259C22.4406 87.0231 22.8488 86.6327 23.3694 86.3547C23.8899 86.0766 24.4845 85.9376 25.1529 85.9376ZM31.4075 86.2393C31.2182 86.2511 31.0791 86.2748 30.9904 86.3103C30.9076 86.3458 30.8514 86.4138 30.8218 86.5144C30.7922 86.6149 30.7775 86.7776 30.7775 87.0024V91.4037C30.7775 91.6284 30.7922 91.7911 30.8218 91.8917C30.8573 91.9923 30.9165 92.0603 30.9993 92.0958C31.0821 92.1313 31.2182 92.1549 31.4075 92.1668V92.3442C31.0644 92.3265 30.5704 92.3176 29.9256 92.3176C29.2098 92.3176 28.6833 92.3265 28.3461 92.3442V92.1668C28.5354 92.1549 28.6715 92.1313 28.7543 92.0958C28.843 92.0603 28.9022 91.9923 28.9318 91.8917C28.9613 91.7911 28.9761 91.6284 28.9761 91.4037V87.0024C28.9761 86.7776 28.9584 86.6149 28.9229 86.5144C28.8933 86.4138 28.8371 86.3458 28.7543 86.3103C28.6715 86.2748 28.5354 86.2511 28.3461 86.2393V86.0618C28.6833 86.0796 29.2098 86.0884 29.9256 86.0884C30.5645 86.0884 31.0584 86.0796 31.4075 86.0618V86.2393ZM38.2788 91.9893C38.1013 92.1668 37.9061 92.291 37.6931 92.362C37.4802 92.433 37.2317 92.4685 36.9478 92.4685C36.5396 92.4685 36.2231 92.3975 35.9983 92.2555C35.7735 92.1076 35.6345 91.8592 35.5813 91.5101L35.4481 90.6228C35.389 90.2087 35.3062 89.8952 35.1997 89.6822C35.0991 89.4692 34.9453 89.3628 34.7383 89.3628H34.339V91.4037C34.339 91.6284 34.3538 91.7911 34.3833 91.8917C34.4188 91.9923 34.478 92.0603 34.5608 92.0958C34.6436 92.1313 34.7797 92.1549 34.969 92.1668V92.3442C34.6259 92.3265 34.1319 92.3176 33.4871 92.3176C32.7713 92.3176 32.2448 92.3265 31.9076 92.3442V92.1668C32.0969 92.1549 32.233 92.1313 32.3158 92.0958C32.4046 92.0603 32.4637 91.9923 32.4933 91.8917C32.5229 91.7911 32.5377 91.6284 32.5377 91.4037V87.0024C32.5377 86.7776 32.5199 86.6149 32.4844 86.5144C32.4548 86.4138 32.3986 86.3458 32.3158 86.3103C32.233 86.2748 32.0969 86.2511 31.9076 86.2393V86.0618C32.2448 86.0796 32.7536 86.0884 33.4339 86.0884L34.4543 86.0796C34.5726 86.0737 34.7087 86.0707 34.8625 86.0707C35.7617 86.0707 36.4301 86.1979 36.8679 86.4523C37.3116 86.7066 37.5334 87.0941 37.5334 87.6147C37.5334 88.0584 37.3678 88.437 37.0365 88.7505C36.7052 89.064 36.1492 89.2563 35.3683 89.3273C35.9717 89.3687 36.4272 89.484 36.7348 89.6733C37.0424 89.8567 37.2317 90.1288 37.3027 90.4897L37.489 91.4125C37.5305 91.6314 37.5807 91.7823 37.6399 91.8651C37.699 91.9479 37.7819 91.9893 37.8883 91.9893C37.9948 91.9893 38.0865 91.9508 38.1634 91.8739L38.2788 91.9893ZM34.8181 86.2393C34.6821 86.2393 34.5785 86.26 34.5076 86.3014C34.4425 86.3428 34.3981 86.4168 34.3745 86.5232C34.3508 86.6297 34.339 86.7895 34.339 87.0024V89.1853H34.5785C34.9986 89.1853 35.2855 89.0581 35.4393 88.8037C35.5931 88.5434 35.67 88.1796 35.67 87.7123C35.67 87.2272 35.602 86.8604 35.4659 86.612C35.3358 86.3635 35.1198 86.2393 34.8181 86.2393ZM41.4528 86.2393C41.2399 86.2511 41.0831 86.2748 40.9826 86.3103C40.8879 86.3458 40.8228 86.4138 40.7873 86.5144C40.7518 86.6149 40.7341 86.7776 40.7341 87.0024V91.5811C40.7341 91.7468 40.7459 91.868 40.7696 91.9449C40.7933 92.0218 40.8347 92.0751 40.8938 92.1047C40.953 92.1283 41.0506 92.1401 41.1866 92.1401H41.4795C41.6865 92.1401 41.9113 92.0366 42.1539 91.8296C42.3964 91.6225 42.6153 91.3504 42.8105 91.0132C43.0057 90.6701 43.1358 90.3152 43.2009 89.9484H43.405C43.3873 90.1614 43.3784 90.4335 43.3784 90.7648C43.3784 91.4037 43.3991 91.9301 43.4405 92.3442C43.0382 92.3265 42.3609 92.3176 41.4085 92.3176C40.0242 92.3176 38.989 92.3265 38.3028 92.3442V92.1668C38.4921 92.1549 38.6281 92.1313 38.7109 92.0958C38.7997 92.0603 38.8588 91.9923 38.8884 91.8917C38.918 91.7911 38.9328 91.6284 38.9328 91.4037V87.0024C38.9328 86.7776 38.915 86.6149 38.8795 86.5144C38.85 86.4138 38.7938 86.3458 38.7109 86.3103C38.6281 86.2748 38.4921 86.2511 38.3028 86.2393V86.0618C38.64 86.0796 39.1665 86.0884 39.8822 86.0884C40.5625 86.0884 41.0861 86.0796 41.4528 86.0618V86.2393Z" fill="white"/>
</svg>
