<svg width="42" height="42" viewBox="0 0 42 42" fill="none" xmlns="http://www.w3.org/2000/svg">
<path d="M21.4319 37.7264C30.8827 37.7247 38.573 30.0344 38.5747 20.5819C38.5747 11.1293 30.8844 3.43901 21.4301 3.43901C11.9776 3.44073 4.28728 11.131 4.28728 20.5819C4.28728 30.0344 11.9776 37.7247 21.4319 37.7264V37.7264ZM21.4301 6.86758C28.9936 6.86759 35.1461 13.0202 35.1461 20.5819C35.1444 28.1436 28.9919 34.2962 21.4319 34.2979C13.8684 34.2962 7.71585 28.1436 7.71585 20.5819C7.71585 13.0219 13.8684 6.8693 21.4301 6.86758Z" fill="white"/>
<path d="M21.4066 27.4475L28.2723 20.5818L21.4066 13.7178L21.4066 18.8675L14.5598 18.8675L14.5598 22.2961L21.4066 22.2961L21.4066 27.4475Z" fill="white"/>
</svg>
